<mxfile host="Electron" modified="2024-06-04T12:20:26.021Z" agent="Mozilla/5.0 (X11; Linux x86_64) AppleWebKit/537.36 (KHTML, like Gecko) draw.io/23.0.2 Chrome/120.0.6099.109 Electron/28.1.0 Safari/537.36" etag="bTIM-kx0mrcaBTdLpEC8" version="23.0.2" type="device">
  <diagram id="LlyCoF11QMpSi3ACZM8y" name="Page-1">
    <mxGraphModel dx="1434" dy="883" grid="1" gridSize="10" guides="1" tooltips="1" connect="1" arrows="1" fold="1" page="1" pageScale="1" pageWidth="1169" pageHeight="827" math="0" shadow="0">
      <root>
        <mxCell id="0" />
        <mxCell id="1" parent="0" />
        <mxCell id="eJ3oT5h9ZwzcKakm_6cT-24" value="has right" style="edgeStyle=none;rounded=0;orthogonalLoop=1;jettySize=auto;html=1;exitX=0;exitY=0.75;exitDx=0;exitDy=0;entryX=1;entryY=0.5;entryDx=0;entryDy=0;fontSize=18;" parent="1" source="eJ3oT5h9ZwzcKakm_6cT-1" target="eJ3oT5h9ZwzcKakm_6cT-16" edge="1">
          <mxGeometry x="0.4758" y="3" relative="1" as="geometry">
            <mxPoint as="offset" />
          </mxGeometry>
        </mxCell>
        <mxCell id="eJ3oT5h9ZwzcKakm_6cT-17" value="has data controller" style="rounded=0;orthogonalLoop=1;jettySize=auto;html=1;exitX=0.25;exitY=0;exitDx=0;exitDy=0;entryX=0.5;entryY=1;entryDx=0;entryDy=0;fontSize=18;" parent="1" source="eJ3oT5h9ZwzcKakm_6cT-1" target="eJ3oT5h9ZwzcKakm_6cT-8" edge="1">
          <mxGeometry x="0.5963" y="2" relative="1" as="geometry">
            <mxPoint as="offset" />
          </mxGeometry>
        </mxCell>
        <mxCell id="eJ3oT5h9ZwzcKakm_6cT-18" value="has data subject" style="edgeStyle=none;rounded=0;orthogonalLoop=1;jettySize=auto;html=1;exitX=0.5;exitY=0;exitDx=0;exitDy=0;entryX=0.5;entryY=1;entryDx=0;entryDy=0;fontSize=18;" parent="1" source="eJ3oT5h9ZwzcKakm_6cT-1" target="eJ3oT5h9ZwzcKakm_6cT-9" edge="1">
          <mxGeometry relative="1" as="geometry" />
        </mxCell>
        <mxCell id="eJ3oT5h9ZwzcKakm_6cT-20" value="has purpose" style="edgeStyle=none;rounded=0;orthogonalLoop=1;jettySize=auto;html=1;exitX=0;exitY=0.25;exitDx=0;exitDy=0;entryX=0.5;entryY=1;entryDx=0;entryDy=0;fontSize=18;" parent="1" source="eJ3oT5h9ZwzcKakm_6cT-1" target="eJ3oT5h9ZwzcKakm_6cT-2" edge="1">
          <mxGeometry relative="1" as="geometry" />
        </mxCell>
        <mxCell id="eJ3oT5h9ZwzcKakm_6cT-21" value="has processing" style="edgeStyle=none;rounded=0;orthogonalLoop=1;jettySize=auto;html=1;exitX=0;exitY=0.5;exitDx=0;exitDy=0;entryX=1;entryY=0.5;entryDx=0;entryDy=0;fontSize=18;" parent="1" source="eJ3oT5h9ZwzcKakm_6cT-1" target="eJ3oT5h9ZwzcKakm_6cT-3" edge="1">
          <mxGeometry relative="1" as="geometry" />
        </mxCell>
        <mxCell id="eJ3oT5h9ZwzcKakm_6cT-22" value="has personal data" style="edgeStyle=none;rounded=0;orthogonalLoop=1;jettySize=auto;html=1;exitX=0;exitY=0.5;exitDx=0;exitDy=0;entryX=1;entryY=0.5;entryDx=0;entryDy=0;fontSize=18;" parent="1" source="eJ3oT5h9ZwzcKakm_6cT-1" target="eJ3oT5h9ZwzcKakm_6cT-4" edge="1">
          <mxGeometry relative="1" as="geometry" />
        </mxCell>
        <mxCell id="eJ3oT5h9ZwzcKakm_6cT-23" value="has legal basis" style="edgeStyle=none;rounded=0;orthogonalLoop=1;jettySize=auto;html=1;exitX=0;exitY=0.75;exitDx=0;exitDy=0;entryX=1;entryY=0.5;entryDx=0;entryDy=0;fontSize=18;" parent="1" source="eJ3oT5h9ZwzcKakm_6cT-1" target="eJ3oT5h9ZwzcKakm_6cT-5" edge="1">
          <mxGeometry relative="1" as="geometry" />
        </mxCell>
        <mxCell id="eJ3oT5h9ZwzcKakm_6cT-25" value="has technical&lt;br&gt;measure" style="edgeStyle=none;rounded=0;orthogonalLoop=1;jettySize=auto;html=1;exitX=0.5;exitY=1;exitDx=0;exitDy=0;entryX=0.5;entryY=0;entryDx=0;entryDy=0;fontSize=18;" parent="1" source="eJ3oT5h9ZwzcKakm_6cT-1" target="eJ3oT5h9ZwzcKakm_6cT-6" edge="1">
          <mxGeometry x="0.5413" y="-2" relative="1" as="geometry">
            <mxPoint as="offset" />
          </mxGeometry>
        </mxCell>
        <mxCell id="eJ3oT5h9ZwzcKakm_6cT-26" value="has organisational&lt;br&gt;measure" style="edgeStyle=none;rounded=0;orthogonalLoop=1;jettySize=auto;html=1;exitX=0.5;exitY=1;exitDx=0;exitDy=0;entryX=0.5;entryY=0;entryDx=0;entryDy=0;fontSize=18;" parent="1" source="eJ3oT5h9ZwzcKakm_6cT-1" target="eJ3oT5h9ZwzcKakm_6cT-7" edge="1">
          <mxGeometry x="0.3616" y="1" relative="1" as="geometry">
            <mxPoint as="offset" />
          </mxGeometry>
        </mxCell>
        <mxCell id="eJ3oT5h9ZwzcKakm_6cT-27" value="has risk" style="edgeStyle=none;rounded=0;orthogonalLoop=1;jettySize=auto;html=1;exitX=0.75;exitY=1;exitDx=0;exitDy=0;entryX=0.5;entryY=0;entryDx=0;entryDy=0;fontSize=18;" parent="1" source="eJ3oT5h9ZwzcKakm_6cT-1" target="eJ3oT5h9ZwzcKakm_6cT-13" edge="1">
          <mxGeometry x="0.3663" y="-2" relative="1" as="geometry">
            <mxPoint as="offset" />
          </mxGeometry>
        </mxCell>
        <mxCell id="eJ3oT5h9ZwzcKakm_6cT-28" value="has context" style="edgeStyle=none;rounded=0;orthogonalLoop=1;jettySize=auto;html=1;exitX=1;exitY=0.5;exitDx=0;exitDy=0;entryX=0;entryY=0.5;entryDx=0;entryDy=0;fontSize=18;" parent="1" source="eJ3oT5h9ZwzcKakm_6cT-1" target="eJ3oT5h9ZwzcKakm_6cT-11" edge="1">
          <mxGeometry relative="1" as="geometry" />
        </mxCell>
        <mxCell id="eJ3oT5h9ZwzcKakm_6cT-29" value="has status" style="edgeStyle=none;rounded=0;orthogonalLoop=1;jettySize=auto;html=1;exitX=1;exitY=0.5;exitDx=0;exitDy=0;entryX=0;entryY=0.5;entryDx=0;entryDy=0;fontSize=18;" parent="1" source="eJ3oT5h9ZwzcKakm_6cT-1" target="eJ3oT5h9ZwzcKakm_6cT-12" edge="1">
          <mxGeometry relative="1" as="geometry" />
        </mxCell>
        <mxCell id="eJ3oT5h9ZwzcKakm_6cT-30" value="has consequence" style="edgeStyle=none;rounded=0;orthogonalLoop=1;jettySize=auto;html=1;exitX=0.75;exitY=1;exitDx=0;exitDy=0;entryX=0.5;entryY=0;entryDx=0;entryDy=0;fontSize=18;" parent="1" source="eJ3oT5h9ZwzcKakm_6cT-1" target="eJ3oT5h9ZwzcKakm_6cT-15" edge="1">
          <mxGeometry x="0.4164" y="7" relative="1" as="geometry">
            <mxPoint as="offset" />
          </mxGeometry>
        </mxCell>
        <mxCell id="eJ3oT5h9ZwzcKakm_6cT-31" value="has recipient" style="edgeStyle=none;rounded=0;orthogonalLoop=1;jettySize=auto;html=1;exitX=0.75;exitY=0;exitDx=0;exitDy=0;entryX=0.5;entryY=1;entryDx=0;entryDy=0;fontSize=18;" parent="1" source="eJ3oT5h9ZwzcKakm_6cT-1" target="eJ3oT5h9ZwzcKakm_6cT-10" edge="1">
          <mxGeometry x="0.5134" y="-3" relative="1" as="geometry">
            <mxPoint as="offset" />
          </mxGeometry>
        </mxCell>
        <mxCell id="eJ3oT5h9ZwzcKakm_6cT-36" value="is implemented&lt;br&gt;using technology" style="edgeStyle=none;rounded=0;orthogonalLoop=1;jettySize=auto;html=1;exitX=0.25;exitY=1;exitDx=0;exitDy=0;entryX=0.5;entryY=0;entryDx=0;entryDy=0;fontSize=18;" parent="1" source="eJ3oT5h9ZwzcKakm_6cT-1" target="eJ3oT5h9ZwzcKakm_6cT-34" edge="1">
          <mxGeometry x="0.5676" y="4" relative="1" as="geometry">
            <mxPoint as="offset" />
          </mxGeometry>
        </mxCell>
        <mxCell id="eJ3oT5h9ZwzcKakm_6cT-38" value="has location&lt;br&gt;has jurisdiction" style="edgeStyle=none;rounded=0;orthogonalLoop=1;jettySize=auto;html=1;exitX=1;exitY=0.75;exitDx=0;exitDy=0;entryX=0;entryY=0.5;entryDx=0;entryDy=0;fontSize=18;" parent="1" source="eJ3oT5h9ZwzcKakm_6cT-1" target="eJ3oT5h9ZwzcKakm_6cT-37" edge="1">
          <mxGeometry relative="1" as="geometry" />
        </mxCell>
        <mxCell id="eJ3oT5h9ZwzcKakm_6cT-40" value="has applicable law" style="edgeStyle=none;rounded=0;orthogonalLoop=1;jettySize=auto;html=1;exitX=1;exitY=0.75;exitDx=0;exitDy=0;entryX=0;entryY=0.5;entryDx=0;entryDy=0;fontSize=18;" parent="1" source="eJ3oT5h9ZwzcKakm_6cT-1" target="eJ3oT5h9ZwzcKakm_6cT-39" edge="1">
          <mxGeometry relative="1" as="geometry" />
        </mxCell>
        <mxCell id="eJ3oT5h9ZwzcKakm_6cT-42" value="has rule" style="edgeStyle=none;rounded=0;orthogonalLoop=1;jettySize=auto;html=1;exitX=1;exitY=0.25;exitDx=0;exitDy=0;entryX=0.5;entryY=1;entryDx=0;entryDy=0;fontSize=18;" parent="1" source="eJ3oT5h9ZwzcKakm_6cT-1" target="eJ3oT5h9ZwzcKakm_6cT-41" edge="1">
          <mxGeometry relative="1" as="geometry" />
        </mxCell>
        <mxCell id="eJ3oT5h9ZwzcKakm_6cT-44" value="has data&lt;br&gt;processor" style="edgeStyle=none;rounded=0;orthogonalLoop=1;jettySize=auto;html=1;exitX=0.75;exitY=0;exitDx=0;exitDy=0;entryX=0.5;entryY=1;entryDx=0;entryDy=0;fontSize=18;" parent="1" source="eJ3oT5h9ZwzcKakm_6cT-1" target="eJ3oT5h9ZwzcKakm_6cT-43" edge="1">
          <mxGeometry x="0.7459" y="-5" relative="1" as="geometry">
            <mxPoint y="-1" as="offset" />
          </mxGeometry>
        </mxCell>
        <mxCell id="eJ3oT5h9ZwzcKakm_6cT-1" value="Process" style="rounded=1;whiteSpace=wrap;html=1;fontSize=24;" parent="1" vertex="1">
          <mxGeometry x="470" y="360" width="150" height="60" as="geometry" />
        </mxCell>
        <mxCell id="eJ3oT5h9ZwzcKakm_6cT-2" value="Purpose" style="rounded=1;whiteSpace=wrap;html=1;fontSize=24;" parent="1" vertex="1">
          <mxGeometry x="110" y="250" width="120" height="60" as="geometry" />
        </mxCell>
        <mxCell id="eJ3oT5h9ZwzcKakm_6cT-3" value="Processing" style="rounded=1;whiteSpace=wrap;html=1;fontSize=24;" parent="1" vertex="1">
          <mxGeometry x="20" y="340" width="150" height="60" as="geometry" />
        </mxCell>
        <mxCell id="eJ3oT5h9ZwzcKakm_6cT-4" value="Personal Data" style="rounded=1;whiteSpace=wrap;html=1;fontSize=24;" parent="1" vertex="1">
          <mxGeometry x="50" y="430" width="180" height="60" as="geometry" />
        </mxCell>
        <mxCell id="eJ3oT5h9ZwzcKakm_6cT-5" value="Legal Basis" style="rounded=1;whiteSpace=wrap;html=1;fontSize=24;" parent="1" vertex="1">
          <mxGeometry x="30" y="510" width="175" height="60" as="geometry" />
        </mxCell>
        <mxCell id="eJ3oT5h9ZwzcKakm_6cT-6" value="Technical Measure" style="rounded=1;whiteSpace=wrap;html=1;fontSize=24;" parent="1" vertex="1">
          <mxGeometry x="430" y="680" width="160" height="60" as="geometry" />
        </mxCell>
        <mxCell id="eJ3oT5h9ZwzcKakm_6cT-7" value="Organisational Measure" style="rounded=1;whiteSpace=wrap;html=1;fontSize=24;" parent="1" vertex="1">
          <mxGeometry x="610" y="750" width="160" height="60" as="geometry" />
        </mxCell>
        <mxCell id="eJ3oT5h9ZwzcKakm_6cT-8" value="Data Controller" style="rounded=1;whiteSpace=wrap;html=1;fontSize=24;" parent="1" vertex="1">
          <mxGeometry x="120" y="110" width="160" height="60" as="geometry" />
        </mxCell>
        <mxCell id="eJ3oT5h9ZwzcKakm_6cT-9" value="Data Subject" style="rounded=1;whiteSpace=wrap;html=1;fontSize=24;" parent="1" vertex="1">
          <mxGeometry x="340" y="70" width="160" height="60" as="geometry" />
        </mxCell>
        <mxCell id="eJ3oT5h9ZwzcKakm_6cT-10" value="Recipient" style="rounded=1;whiteSpace=wrap;html=1;fontSize=24;" parent="1" vertex="1">
          <mxGeometry x="720" y="60" width="160" height="60" as="geometry" />
        </mxCell>
        <mxCell id="eJ3oT5h9ZwzcKakm_6cT-11" value="Context" style="rounded=1;whiteSpace=wrap;html=1;fontSize=24;" parent="1" vertex="1">
          <mxGeometry x="890" y="270" width="160" height="60" as="geometry" />
        </mxCell>
        <mxCell id="eJ3oT5h9ZwzcKakm_6cT-12" value="Status" style="rounded=1;whiteSpace=wrap;html=1;fontSize=24;" parent="1" vertex="1">
          <mxGeometry x="920" y="354" width="160" height="60" as="geometry" />
        </mxCell>
        <mxCell id="eJ3oT5h9ZwzcKakm_6cT-13" value="Risk" style="rounded=1;whiteSpace=wrap;html=1;fontSize=24;" parent="1" vertex="1">
          <mxGeometry x="700" y="660" width="160" height="60" as="geometry" />
        </mxCell>
        <mxCell id="eJ3oT5h9ZwzcKakm_6cT-15" value="Consequence" style="rounded=1;whiteSpace=wrap;html=1;fontSize=24;" parent="1" vertex="1">
          <mxGeometry x="890" y="710" width="160" height="60" as="geometry" />
        </mxCell>
        <mxCell id="eJ3oT5h9ZwzcKakm_6cT-16" value="Right" style="rounded=1;whiteSpace=wrap;html=1;fontSize=24;" parent="1" vertex="1">
          <mxGeometry x="45" y="600" width="160" height="60" as="geometry" />
        </mxCell>
        <mxCell id="eJ3oT5h9ZwzcKakm_6cT-34" value="Technology" style="rounded=1;whiteSpace=wrap;html=1;fontSize=24;" parent="1" vertex="1">
          <mxGeometry x="200" y="710" width="160" height="60" as="geometry" />
        </mxCell>
        <mxCell id="eJ3oT5h9ZwzcKakm_6cT-37" value="Location" style="rounded=1;whiteSpace=wrap;html=1;fontSize=24;" parent="1" vertex="1">
          <mxGeometry x="960" y="430" width="160" height="60" as="geometry" />
        </mxCell>
        <mxCell id="eJ3oT5h9ZwzcKakm_6cT-39" value="Law" style="rounded=1;whiteSpace=wrap;html=1;fontSize=24;" parent="1" vertex="1">
          <mxGeometry x="970" y="550" width="160" height="60" as="geometry" />
        </mxCell>
        <mxCell id="eJ3oT5h9ZwzcKakm_6cT-41" value="Rule" style="rounded=1;whiteSpace=wrap;html=1;fontSize=24;" parent="1" vertex="1">
          <mxGeometry x="750" y="180" width="160" height="60" as="geometry" />
        </mxCell>
        <mxCell id="eJ3oT5h9ZwzcKakm_6cT-43" value="Data Processor" style="rounded=1;whiteSpace=wrap;html=1;fontSize=24;" parent="1" vertex="1">
          <mxGeometry x="540" y="70" width="160" height="60" as="geometry" />
        </mxCell>
      </root>
    </mxGraphModel>
  </diagram>
</mxfile>
